<mxfile host="app.diagrams.net" modified="2023-03-24T04:54:37.184Z" agent="Mozilla/5.0 (Windows NT 10.0; Win64; x64) AppleWebKit/537.36 (KHTML, like Gecko) Chrome/111.0.0.0 Safari/537.36" etag="TCogbzshq8ZzRwbeQK_3" version="21.1.0" type="device">
  <diagram name="Page-1" id="e7e014a7-5840-1c2e-5031-d8a46d1fe8dd">
    <mxGraphModel dx="1613" dy="734" grid="1" gridSize="10" guides="1" tooltips="1" connect="1" arrows="1" fold="1" page="1" pageScale="1" pageWidth="1169" pageHeight="826" background="none" math="0" shadow="0">
      <root>
        <mxCell id="0" />
        <mxCell id="1" parent="0" />
        <mxCell id="2" value="User" style="swimlane;whiteSpace=wrap" parent="1" vertex="1">
          <mxGeometry x="165" y="128" width="280" height="632" as="geometry" />
        </mxCell>
        <mxCell id="5" value="" style="ellipse;shape=startState;fillColor=#000000;strokeColor=#ff0000;" parent="2" vertex="1">
          <mxGeometry x="100" y="40" width="30" height="30" as="geometry" />
        </mxCell>
        <mxCell id="6" value="" style="edgeStyle=elbowEdgeStyle;elbow=horizontal;verticalAlign=bottom;endArrow=open;endSize=8;strokeColor=#FF0000;endFill=1;rounded=0" parent="2" source="5" target="7" edge="1">
          <mxGeometry x="100" y="40" as="geometry">
            <mxPoint x="115" y="110" as="targetPoint" />
          </mxGeometry>
        </mxCell>
        <mxCell id="7" value="Start" style="" parent="2" vertex="1">
          <mxGeometry x="60" y="110" width="110" height="50" as="geometry" />
        </mxCell>
        <mxCell id="uazHxgOAiRv8CP37NR0o-42" value="Enter user id and password" style="rounded=0;whiteSpace=wrap;html=1;" parent="2" vertex="1">
          <mxGeometry x="55.5" y="182" width="120" height="60" as="geometry" />
        </mxCell>
        <mxCell id="uazHxgOAiRv8CP37NR0o-53" value="Check Stock" style="rounded=0;whiteSpace=wrap;html=1;" parent="2" vertex="1">
          <mxGeometry x="60.5" y="290" width="120" height="62" as="geometry" />
        </mxCell>
        <mxCell id="uazHxgOAiRv8CP37NR0o-58" value="Order Stock" style="rounded=0;whiteSpace=wrap;html=1;" parent="2" vertex="1">
          <mxGeometry x="55.5" y="412" width="120" height="60" as="geometry" />
        </mxCell>
        <mxCell id="uazHxgOAiRv8CP37NR0o-68" style="edgeStyle=orthogonalEdgeStyle;rounded=0;orthogonalLoop=1;jettySize=auto;html=1;exitX=0.5;exitY=1;exitDx=0;exitDy=0;entryX=0.5;entryY=0;entryDx=0;entryDy=0;" parent="2" source="uazHxgOAiRv8CP37NR0o-64" target="uazHxgOAiRv8CP37NR0o-67" edge="1">
          <mxGeometry relative="1" as="geometry" />
        </mxCell>
        <mxCell id="uazHxgOAiRv8CP37NR0o-64" value="" style="ellipse;html=1;shape=endState;fillColor=#000000;strokeColor=#ff0000;" parent="2" vertex="1">
          <mxGeometry x="105.5" y="517" width="30" height="30" as="geometry" />
        </mxCell>
        <mxCell id="uazHxgOAiRv8CP37NR0o-67" value="End" style="html=1;whiteSpace=wrap;" parent="2" vertex="1">
          <mxGeometry x="65.5" y="572" width="110" height="50" as="geometry" />
        </mxCell>
        <mxCell id="3" value="Inventory Management System" style="swimlane;whiteSpace=wrap" parent="1" vertex="1">
          <mxGeometry x="445" y="128" width="285" height="632" as="geometry" />
        </mxCell>
        <mxCell id="15" value="Show LoginÂ " style="" parent="3" vertex="1">
          <mxGeometry x="20" y="110" width="110" height="50" as="geometry" />
        </mxCell>
        <mxCell id="uazHxgOAiRv8CP37NR0o-48" style="edgeStyle=orthogonalEdgeStyle;rounded=0;orthogonalLoop=1;jettySize=auto;html=1;exitX=0.5;exitY=1;exitDx=0;exitDy=0;entryX=0.5;entryY=0;entryDx=0;entryDy=0;" parent="3" source="uazHxgOAiRv8CP37NR0o-45" target="uazHxgOAiRv8CP37NR0o-47" edge="1">
          <mxGeometry relative="1" as="geometry" />
        </mxCell>
        <mxCell id="uazHxgOAiRv8CP37NR0o-51" style="edgeStyle=orthogonalEdgeStyle;rounded=0;orthogonalLoop=1;jettySize=auto;html=1;exitX=1;exitY=0.5;exitDx=0;exitDy=0;entryX=0.5;entryY=0;entryDx=0;entryDy=0;" parent="3" source="uazHxgOAiRv8CP37NR0o-45" target="uazHxgOAiRv8CP37NR0o-50" edge="1">
          <mxGeometry relative="1" as="geometry" />
        </mxCell>
        <mxCell id="uazHxgOAiRv8CP37NR0o-45" value="Are details valid ?" style="rhombus;whiteSpace=wrap;html=1;" parent="3" vertex="1">
          <mxGeometry x="35.5" y="172" width="80" height="80" as="geometry" />
        </mxCell>
        <mxCell id="uazHxgOAiRv8CP37NR0o-47" value="Display &quot;Incorrect Credentials&quot;" style="rounded=1;whiteSpace=wrap;html=1;" parent="3" vertex="1">
          <mxGeometry x="15" y="282" width="120" height="60" as="geometry" />
        </mxCell>
        <mxCell id="uazHxgOAiRv8CP37NR0o-49" value="No" style="text;html=1;strokeColor=none;fillColor=none;align=center;verticalAlign=middle;whiteSpace=wrap;rounded=0;" parent="3" vertex="1">
          <mxGeometry x="30" y="252" width="60" height="30" as="geometry" />
        </mxCell>
        <mxCell id="uazHxgOAiRv8CP37NR0o-50" value="Display Inventory" style="rounded=0;whiteSpace=wrap;html=1;" parent="3" vertex="1">
          <mxGeometry x="145" y="282" width="120" height="60" as="geometry" />
        </mxCell>
        <mxCell id="uazHxgOAiRv8CP37NR0o-52" value="Yes" style="text;html=1;strokeColor=none;fillColor=none;align=center;verticalAlign=middle;whiteSpace=wrap;rounded=0;" parent="3" vertex="1">
          <mxGeometry x="155" y="252" width="60" height="30" as="geometry" />
        </mxCell>
        <mxCell id="uazHxgOAiRv8CP37NR0o-56" value="Shows resource breakdown" style="rounded=1;whiteSpace=wrap;html=1;" parent="3" vertex="1">
          <mxGeometry x="25" y="372" width="120" height="60" as="geometry" />
        </mxCell>
        <mxCell id="uazHxgOAiRv8CP37NR0o-62" style="edgeStyle=orthogonalEdgeStyle;rounded=0;orthogonalLoop=1;jettySize=auto;html=1;exitX=1;exitY=0.5;exitDx=0;exitDy=0;entryX=0.5;entryY=0;entryDx=0;entryDy=0;" parent="3" source="uazHxgOAiRv8CP37NR0o-59" target="uazHxgOAiRv8CP37NR0o-61" edge="1">
          <mxGeometry relative="1" as="geometry" />
        </mxCell>
        <mxCell id="uazHxgOAiRv8CP37NR0o-59" value="Places Stock Order" style="rounded=1;whiteSpace=wrap;html=1;" parent="3" vertex="1">
          <mxGeometry x="30" y="452" width="120" height="60" as="geometry" />
        </mxCell>
        <mxCell id="uazHxgOAiRv8CP37NR0o-61" value="Shows Updated Stock" style="rounded=0;whiteSpace=wrap;html=1;" parent="3" vertex="1">
          <mxGeometry x="155" y="502" width="120" height="60" as="geometry" />
        </mxCell>
        <mxCell id="uazHxgOAiRv8CP37NR0o-41" style="edgeStyle=orthogonalEdgeStyle;rounded=0;orthogonalLoop=1;jettySize=auto;html=1;exitX=1;exitY=0.5;exitDx=0;exitDy=0;entryX=0;entryY=0.5;entryDx=0;entryDy=0;" parent="1" source="7" target="15" edge="1">
          <mxGeometry relative="1" as="geometry" />
        </mxCell>
        <mxCell id="uazHxgOAiRv8CP37NR0o-44" style="edgeStyle=orthogonalEdgeStyle;rounded=0;orthogonalLoop=1;jettySize=auto;html=1;exitX=0;exitY=0.75;exitDx=0;exitDy=0;entryX=1;entryY=0;entryDx=0;entryDy=0;" parent="1" source="15" target="uazHxgOAiRv8CP37NR0o-42" edge="1">
          <mxGeometry relative="1" as="geometry" />
        </mxCell>
        <mxCell id="uazHxgOAiRv8CP37NR0o-46" style="edgeStyle=orthogonalEdgeStyle;rounded=0;orthogonalLoop=1;jettySize=auto;html=1;exitX=1;exitY=0.5;exitDx=0;exitDy=0;entryX=0;entryY=0.5;entryDx=0;entryDy=0;" parent="1" source="uazHxgOAiRv8CP37NR0o-42" target="uazHxgOAiRv8CP37NR0o-45" edge="1">
          <mxGeometry relative="1" as="geometry" />
        </mxCell>
        <mxCell id="uazHxgOAiRv8CP37NR0o-54" style="edgeStyle=orthogonalEdgeStyle;rounded=0;orthogonalLoop=1;jettySize=auto;html=1;exitX=0.5;exitY=1;exitDx=0;exitDy=0;entryX=1;entryY=0.5;entryDx=0;entryDy=0;" parent="1" source="uazHxgOAiRv8CP37NR0o-50" target="uazHxgOAiRv8CP37NR0o-53" edge="1">
          <mxGeometry relative="1" as="geometry">
            <Array as="points">
              <mxPoint x="650" y="490" />
              <mxPoint x="450" y="490" />
              <mxPoint x="450" y="449" />
            </Array>
          </mxGeometry>
        </mxCell>
        <mxCell id="uazHxgOAiRv8CP37NR0o-57" style="edgeStyle=orthogonalEdgeStyle;rounded=0;orthogonalLoop=1;jettySize=auto;html=1;exitX=1;exitY=1;exitDx=0;exitDy=0;entryX=0;entryY=0.5;entryDx=0;entryDy=0;" parent="1" source="uazHxgOAiRv8CP37NR0o-53" target="uazHxgOAiRv8CP37NR0o-56" edge="1">
          <mxGeometry relative="1" as="geometry" />
        </mxCell>
        <mxCell id="uazHxgOAiRv8CP37NR0o-60" style="edgeStyle=orthogonalEdgeStyle;rounded=0;orthogonalLoop=1;jettySize=auto;html=1;exitX=1;exitY=0.5;exitDx=0;exitDy=0;" parent="1" source="uazHxgOAiRv8CP37NR0o-58" target="uazHxgOAiRv8CP37NR0o-59" edge="1">
          <mxGeometry relative="1" as="geometry" />
        </mxCell>
        <mxCell id="uazHxgOAiRv8CP37NR0o-65" style="edgeStyle=orthogonalEdgeStyle;rounded=0;orthogonalLoop=1;jettySize=auto;html=1;exitX=0;exitY=0.5;exitDx=0;exitDy=0;entryX=1;entryY=0.5;entryDx=0;entryDy=0;" parent="1" source="uazHxgOAiRv8CP37NR0o-61" target="uazHxgOAiRv8CP37NR0o-64" edge="1">
          <mxGeometry relative="1" as="geometry" />
        </mxCell>
      </root>
    </mxGraphModel>
  </diagram>
</mxfile>
